{"title":"Pharrell Williams - Happy [Music Video] 1080p","uid":10631627,"size":65483158,"categoryP":"audio","categoryS":"sound_clips","magnet":"?xt=urn:btih:fc49918eed6e09dbca0f5d02077616ad6a891986&amp;dn=Pharrell+Williams+-+Happy+%5BMusic+Video%5D+1080p&amp;tr=udp%3A%2F%2Ftracker.openbittorrent.com%3A80&amp;tr=udp%3A%2F%2Fopen.demonii.com%3A1337&amp;tr=udp%3A%2F%2Ftracker.coppersurfer.tk%3A6969&amp;tr=udp%3A%2F%2Fexodus.desync.com%3A6969","seeders":8,"leechers":0,"uploader":"AbRafey","files":1,"time":1406327985,"description":"General\nComplete name : Pharrell Williams - Happy [Music Video] 1080p.MP4\nFormat : MPEG-4\nFormat profile : Base Media\nCodec ID : isom\nFile size : 62.4 MiB\nDuration : 4mn 7s\nOverall bit rate mode : Variable\nOverall bit rate : 2 121 Kbps\nEncoded date : UTC 2014-01-10 06:09:03\nTagged date : UTC 2014-01-10 06:09:03\n\nVideo\nID : 1\nFormat : AVC\nFormat/Info : Advanced Video Codec\nFormat profile : &lt;a class=&quot;__cf_email__&quot; href=&quot;/cdn-cgi/l/email-protection&quot; data-cfemail=&quot;3b73525c537b770f150b&quot;&gt;[email&amp;#160;protected]&lt;/a&gt;&lt;script cf-hash='f9e31' type=&quot;text/javascript&quot;&gt;\n/* &lt;![CDATA[ */!function(){try{var t=&quot;currentScript&quot;in document?document.currentScript:function(){for(var t=document.getElementsByTagName(&quot;script&quot;),e=t.length;e--;)if(t[e].getAttribute(&quot;cf-hash&quot;))return t[e]}();if(t&amp;&amp;t.previousSibling){var e,r,n,i,c=t.previousSibling,a=c.getAttribute(&quot;data-cfemail&quot;);if(a){for(e=&quot;&quot;,r=parseInt(a.substr(0,2),16),n=2;a.length-n;n+=2)i=parseInt(a.substr(n,2),16)^r,e+=String.fromCharCode(i);e=document.createTextNode(e),c.parentNode.replaceChild(e,c)}}}catch(u){}}();/* ]]&gt; */&lt;/script&gt;\nFormat settings, CABAC : Yes\nFormat settings, ReFrames : 3 frames\nCodec ID : avc1\nCodec ID/Info : Advanced Video Coding\nDuration : 4mn 6s\nBit rate : 1 993 Kbps\nWidth : 1 920 pixels\nHeight : 1 080 pixels\nDisplay aspect ratio : 16:9\nFrame rate mode : Constant\nFrame rate : 23.976 fps\nColor space : YUV\nChroma subsampling : 4:2:0\nBit depth : 8 bits\nScan type : Progressive\nBits/(Pixel*Frame) : 0.040\nStream size : 58.7 MiB (94%)\nEncoded date : UTC 2014-01-10 06:09:03\nTagged date : UTC 2014-01-10 06:09:03\n\nAudio\nID : 2\nFormat : AAC\nFormat/Info : Advanced Audio Codec\nFormat profile : LC\nCodec ID : 40\nDuration : 4mn 7s\nBit rate mode : Variable\nBit rate : 126 Kbps\nChannel(s) : 2 channels\nChannel positions : Front: L R\nSampling rate : 44.1 KHz\nCompression mode : Lossy\nStream size : 3.70 MiB (6%)\nEncoded date : UTC 2014-01-10 06:08:56\nTagged date : UTC 2014-01-10 06:08:56","torrent":{"xt":"urn:btih:fc49918eed6e09dbca0f5d02077616ad6a891986","amp;dn":"Pharrell+Williams+-+Happy+%5BMusic+Video%5D+1080p","amp;tr":["udp%3A%2F%2Ftracker.openbittorrent.com%3A80","udp%3A%2F%2Fopen.demonii.com%3A1337","udp%3A%2F%2Ftracker.coppersurfer.tk%3A6969","udp%3A%2F%2Fexodus.desync.com%3A6969"],"infoHash":"fc49918eed6e09dbca0f5d02077616ad6a891986","infoHashBuffer":{"type":"Buffer","data":[252,73,145,142,237,110,9,219,202,15,93,2,7,118,22,173,106,137,25,134]},"announce":[],"urlList":[]}}